<svg width="118" height="118" viewBox="0 0 118 118" fill="none" xmlns="http://www.w3.org/2000/svg">
<g clip-path="url(#clip0_70_60)">
<path d="M118.064 75.3777L115.493 54.5752C115.415 50.2276 114.05 46.0007 111.569 42.4291C109.089 38.8575 105.605 36.1017 101.559 34.5103L82.1085 26.4421C77.9579 24.7932 73.4327 24.3224 69.0316 25.0815C64.6306 25.8406 60.5246 27.8002 57.1662 30.7442L39.0975 44.147C34.1797 48.6189 30.3244 54.1339 27.8137 60.2884C27.8137 60.2884 25.7094 64.0742 25.6258 64.2758C24.1168 68.3994 24.2702 72.9482 26.0535 76.9608C26.8848 78.9182 28.0984 80.69 29.623 82.1725L29.4608 82.5757C28.1803 85.5748 28.1436 88.9598 29.3589 91.986C30.5742 95.0122 32.9418 97.4316 35.9409 98.7122C38.9401 99.9927 42.3251 100.029 45.3513 98.8141C48.3775 97.5988 50.7969 95.2312 52.0775 92.232L75.6775 101.697C74.652 104.726 74.8481 108.037 76.2239 110.924C77.5997 113.812 80.047 116.049 83.046 117.162C86.045 118.274 89.3595 118.173 92.2855 116.881C95.2116 115.589 97.5187 113.207 98.7169 110.242L98.7858 110.07C101.835 110.188 104.846 109.36 107.406 107.698C109.966 106.037 111.949 103.625 113.083 100.792L115.109 95.6786C117.664 89.2346 118.676 82.2825 118.064 75.3777ZM63.376 38.3502C65.3848 36.5366 67.8572 35.3154 70.5183 34.8224C73.1795 34.3294 75.9252 34.5839 78.4505 35.5576L97.8959 43.6209C100.252 44.5722 102.262 46.2193 103.658 48.3426C105.054 50.4658 105.769 52.9642 105.708 55.5045C105.708 55.5635 107.769 72.1622 107.769 72.1622L49.3045 48.7932L63.376 38.3502ZM39.9775 89.4H39.9284L40.0267 89.4393L39.9775 89.4ZM86.3368 107.99H86.2925L86.3761 108.019L86.3368 107.99ZM103.948 97.1732C103.47 98.3759 102.537 99.3415 101.352 99.8606C100.166 100.38 98.8237 100.411 97.6156 99.9462L37.5389 75.8103C36.3948 75.2417 35.5143 74.2537 35.0805 73.0521C34.381 71.5091 34.2402 69.7708 34.6823 68.1354C34.6823 68.1354 36.7522 64.4135 36.8309 64.2021C37.9773 61.3386 39.4912 58.6364 41.3345 56.1633L49.2995 59.3493L47.7016 63.2827C47.2113 64.4914 47.2213 65.8455 47.7293 67.0469C48.2374 68.2484 49.2019 69.1988 50.4107 69.6891C51.6195 70.1794 52.9735 70.1694 54.175 69.6613C55.3764 69.1533 56.3268 68.1888 56.8171 66.98L58.4298 62.9975L91.1158 76.0611L89.4933 80.0583C89.2505 80.6569 89.128 81.2973 89.1328 81.9432C89.1375 82.5891 89.2695 83.2277 89.521 83.8226C89.7726 84.4175 90.1389 84.957 90.5989 85.4104C91.059 85.8637 91.6038 86.222 92.2024 86.4647C93.4112 86.955 94.7652 86.9451 95.9667 86.437C96.5615 86.1855 97.1011 85.8192 97.5544 85.3591C98.0077 84.899 98.366 84.3542 98.6088 83.7557L100.246 79.7142L108.221 82.9002C107.894 86.0217 107.142 89.0838 105.984 92.0009L103.948 97.1732ZM19.6668 54.0836C19.6668 55.3876 19.1488 56.6381 18.2267 57.5602C17.3047 58.4822 16.0541 59.0002 14.7501 59.0002H4.91678C3.98254 58.9999 3.06774 58.7334 2.2795 58.2319C1.49126 57.7304 0.862205 57.0148 0.466001 56.1687C0.0697963 55.3226 -0.0771577 54.3812 0.042347 53.4546C0.161852 52.5281 0.542868 51.6548 1.14078 50.9369L8.9632 41.551C9.48343 40.9311 9.76859 40.1477 9.76859 39.3385C9.76859 38.5292 9.48343 37.7459 8.9632 37.126L1.14078 27.7302C0.542868 27.0124 0.161852 26.1391 0.042347 25.2125C-0.0771577 24.2859 0.0697963 23.3445 0.466001 22.4984C0.862205 21.6524 1.49126 20.9367 2.2795 20.4352C3.06774 19.9338 3.98254 19.6673 4.91678 19.6669H16.2251C17.1359 19.6605 18.0076 19.2958 18.6516 18.6517C19.2957 18.0077 19.6603 17.136 19.6668 16.2252V4.9169C19.6671 3.98267 19.9336 3.06787 20.4351 2.27962C20.9366 1.49138 21.6523 0.862327 22.4983 0.466123C23.3444 0.0699184 24.2858 -0.0770356 25.2124 0.0424691C26.1389 0.161974 27.0123 0.54299 27.7301 1.1409L37.116 8.96332C37.7359 9.48355 38.5193 9.76872 39.3285 9.76872C40.1378 9.76872 40.9212 9.48355 41.541 8.96332L50.9368 1.1409C51.6546 0.54299 52.528 0.161974 53.4545 0.0424691C54.3811 -0.0770356 55.3225 0.0699184 56.1686 0.466123C57.0146 0.862327 57.7303 1.49138 58.2318 2.27962C58.7333 3.06787 58.9998 3.98267 59.0001 4.9169V14.7502C59.0023 16.0011 58.5277 17.2059 57.6728 18.1191C56.8179 19.0323 55.6471 19.5853 54.3987 19.6655C53.1504 19.7457 51.9184 19.3471 50.9537 18.5508C49.989 17.7545 49.364 16.6205 49.2061 15.3796L47.8442 16.5153C45.4567 18.5098 42.4445 19.6024 39.3335 19.6024C36.2224 19.6024 33.2102 18.5098 30.8227 16.5153L29.5001 15.414V16.2252C29.491 19.7432 28.0895 23.1145 25.6019 25.602C23.1143 28.0896 19.7431 29.4912 16.2251 29.5002H15.4139L16.5152 30.8228C18.5097 33.2104 19.6023 36.2226 19.6023 39.3336C19.6023 42.4446 18.5097 45.4568 16.5152 47.8443L15.3794 49.2062C16.5648 49.3592 17.6538 49.9387 18.4429 50.8364C19.232 51.7341 19.6671 52.8884 19.6668 54.0836Z" fill="#F6975F"/>
</g>
<defs>
<clipPath id="clip0_70_60">
<rect width="118" height="118" fill="white"/>
</clipPath>
</defs>
</svg>
