<svg width="118" height="118" viewBox="0 0 118 118" fill="none" xmlns="http://www.w3.org/2000/svg">
<g clip-path="url(#clip0_70_77)">
<path d="M113.673 58.41C108.118 52.8542 98.3825 52.8542 92.8267 58.41L54.0833 97.1533V118H74.93L113.673 79.2567C116.476 76.4542 118 72.7667 118 68.8333C118 64.9 116.476 61.2125 113.673 58.41ZM106.741 72.3242L70.8983 108.167H63.9658V101.234L99.8083 65.3917C101.677 63.5233 104.922 63.5233 106.741 65.3917C107.675 66.3258 108.167 67.555 108.167 68.8825C108.167 70.21 107.675 71.4392 106.741 72.3733V72.3242ZM9.83333 14.75C9.83333 12.0458 12.0458 9.83333 14.75 9.83333H49.1667V39.3333H78.6667V58.6558L88.5 48.8225V32.4008L56.0992 0H14.75C6.6375 0 0 6.6375 0 14.75V108.167H44.25V98.3333H9.83333V14.75ZM59 16.7658L71.7342 29.5H59V16.7658ZM68.5875 68.735C68.6858 67.9483 68.8333 67.2108 68.8333 66.375C68.8333 62.2942 65.5392 59 61.4583 59C57.3775 59 54.0833 62.2942 54.0833 66.375C54.0833 68.6367 54.3783 70.6525 54.87 72.4225C52.3133 73.6517 49.7075 73.75 49.1175 73.75C46.61 73.75 44.1025 72.9142 41.7425 71.5375C46.2658 66.1292 49.1175 59.6392 49.1175 54.0833C49.1175 45.9708 42.48 39.3333 34.3675 39.3333C26.255 39.3333 19.6175 45.9708 19.6175 54.0833C19.6175 59.6883 22.4692 66.1292 26.9925 71.5375C24.6325 72.9142 22.125 73.75 19.6175 73.75V83.5833C24.78 83.5833 29.8933 81.5675 34.3675 78.4208C38.8417 81.5675 43.955 83.5833 49.1175 83.5833C50.5925 83.5833 52.4117 83.3867 54.28 82.9933L68.5383 68.735H68.5875ZM34.4167 65.0967C31.4175 61.36 29.5 57.1808 29.5 54.0833C29.5 51.3792 31.7125 49.1667 34.4167 49.1667C37.1208 49.1667 39.3333 51.3792 39.3333 54.0833C39.3333 57.1808 37.4158 61.36 34.4167 65.0967Z" fill="#F6975F"/>
</g>
<defs>
<clipPath id="clip0_70_77">
<rect width="118" height="118" fill="white"/>
</clipPath>
</defs>
</svg>
