<svg width="118" height="118" viewBox="0 0 118 118" fill="none" xmlns="http://www.w3.org/2000/svg">
<g clip-path="url(#clip0_70_58)">
<path d="M69.0349 67.0682L42.244 46.1036C39.0826 43.6256 34.6723 43.6256 31.5011 46.1036L4.72 67.0682C1.72083 69.4135 0 72.9387 0 76.7492V118.005H73.75V76.7442C73.75 72.9388 72.0292 69.4135 69.0349 67.0682ZM68.8333 113.083H4.91667V76.7442C4.91667 74.458 5.94917 72.3389 7.74867 70.9327L34.5297 49.9681C35.9113 48.8913 37.8387 48.8913 39.2104 49.9681L66.0013 70.9327C67.7959 72.3389 68.8284 74.458 68.8284 76.7442V113.083H68.8333ZM24.5833 98.3333H49.1667V73.75H24.5833V98.3333ZM29.5 78.6667H44.25V93.4167H29.5V78.6667ZM88.5 63.9167H98.3333V68.8333H88.5V63.9167ZM88.5 83.5833H98.3333V88.5H88.5V83.5833ZM68.8333 24.5833H78.6667V29.5H68.8333V24.5833ZM98.3333 29.5H88.5V24.5833H98.3333V29.5ZM68.8333 44.25H78.6667V49.1667H68.8333V44.25ZM88.5 44.25H98.3333V49.1667H88.5V44.25ZM118 12.2917V118H83.5833V113.083H113.083V12.2917C113.083 8.22558 109.774 4.91667 105.708 4.91667H61.4583C57.3922 4.91667 54.0833 8.22558 54.0833 12.2917V44.25L49.1667 40.4002V12.2917C49.1667 5.51158 54.6782 0 61.4583 0H105.708C112.488 0 118 5.51158 118 12.2917Z" fill="#F6975F"/>
</g>
<defs>
<clipPath id="clip0_70_58">
<rect width="118" height="118" fill="white"/>
</clipPath>
</defs>
</svg>
