<svg width="118" height="118" viewBox="0 0 118 118" fill="none" xmlns="http://www.w3.org/2000/svg">
<path d="M29.5 44.25C29.5 52.5444 33.0203 60.4996 39.1612 66.08C44.5991 71.0262 51.7282 73.7451 59.0639 73.7451C59.9981 73.7451 60.9421 73.7008 61.8812 73.6123C76.8082 72.1865 88.5 58.8279 88.5 43.1929V39.3333H93.4167V29.5H88.5V27.0417C88.5 12.1294 76.3706 0 61.4583 0H56.5417C41.6294 0 29.5 12.1294 29.5 27.0417V29.5H24.5833V39.3333H29.5V44.25ZM78.6667 43.1929C78.6667 53.8129 70.8836 62.8743 60.947 63.8232C55.3174 64.3542 49.9238 62.5793 45.7742 58.8033C41.6786 55.0814 39.3333 49.7763 39.3333 44.25V39.3333H78.6667V43.1929ZM39.3333 27.0417C39.3333 18.3883 45.7545 11.2051 54.0833 10.0103V24.5833H63.9167V10.0103C72.2455 11.2051 78.6667 18.3883 78.6667 27.0417V29.5H39.3333V27.0417ZM103.25 103.25V118H93.4167V103.25C93.4167 95.1178 86.7988 88.5 78.6667 88.5H39.3333C31.2012 88.5 24.5833 95.1178 24.5833 103.25V118H14.75V103.25C14.75 89.6947 25.7781 78.6667 39.3333 78.6667H78.6667C92.2219 78.6667 103.25 89.6947 103.25 103.25Z" fill="#F6975F"/>
</svg>
