<svg width="118" height="118" viewBox="0 0 118 118" fill="none" xmlns="http://www.w3.org/2000/svg">
<g clip-path="url(#clip0_70_79)">
<path d="M103.25 103.25V118H93.4167V103.25C93.4167 97.2074 89.8324 91.9368 84.4536 89.6702L59 115.119L33.5464 89.6702C28.1627 91.9368 24.5833 97.2074 24.5833 103.25V118H14.75V103.25C14.75 91.7155 22.5921 81.8625 33.8168 79.2911L36.4669 78.6814L59 101.215L81.5331 78.6814L84.1832 79.2911C95.4079 81.8625 103.25 91.7155 103.25 103.25ZM29.5 29.5L19.6667 24.5833V9.83334L50.6515 1.02759C56.1336 -0.344158 61.8664 -0.344158 67.3485 1.02759L98.3333 9.83334V24.5833L88.5 29.5V44.25C88.5 60.5193 75.2692 73.75 59 73.75C42.7307 73.75 29.5 60.5193 29.5 44.25V29.5ZM78.6667 37.4404C73.868 38.4533 67.3141 39.3333 59 39.3333C50.6859 39.3333 44.132 38.4533 39.3333 37.4404V44.25C39.3333 55.0962 48.1538 63.9167 59 63.9167C69.8462 63.9167 78.6667 55.0962 78.6667 44.25V37.4404ZM49.1667 19.9863C49.1667 26.5303 56.7973 30.857 59.0049 31.9583C61.2027 31.0733 68.8333 27.4252 68.8333 19.9863V12.8571C68.8333 11.918 68.2335 11.0871 67.3387 10.7872L59 8.02401L50.6613 10.7872C49.7665 11.0822 49.1667 11.9131 49.1667 12.8571V19.9863Z" fill="#F6975F"/>
</g>
<defs>
<clipPath id="clip0_70_79">
<rect width="118" height="118" fill="white"/>
</clipPath>
</defs>
</svg>
