<svg width="88" height="80" viewBox="0 0 88 80" fill="none" xmlns="http://www.w3.org/2000/svg">
<path id="Vector" d="M69.6667 0H18.3333C13.4728 0.00577403 8.81305 1.92321 5.37614 5.33171C1.93923 8.74021 0.00582214 13.3615 0 18.1818L0 61.8182C0.00582214 66.6385 1.93923 71.2598 5.37614 74.6683C8.81305 78.0768 13.4728 79.9942 18.3333 80H69.6667C74.5272 79.9942 79.187 78.0768 82.6239 74.6683C86.0608 71.2598 87.9942 66.6385 88 61.8182V18.1818C87.9942 13.3615 86.0608 8.74021 82.6239 5.33171C79.187 1.92321 74.5272 0.00577403 69.6667 0ZM18.3333 7.27273H69.6667C71.8622 7.27701 74.0062 7.93278 75.8228 9.15565C77.6394 10.3785 79.0455 12.1125 79.86 14.1345L51.7807 41.9855C49.7142 44.0266 46.9165 45.1726 44 45.1726C41.0835 45.1726 38.2858 44.0266 36.2193 41.9855L8.14 14.1345C8.95455 12.1125 10.3606 10.3785 12.1772 9.15565C13.9938 7.93278 16.1378 7.27701 18.3333 7.27273ZM69.6667 72.7273H18.3333C15.416 72.7273 12.6181 71.5779 10.5552 69.5321C8.49226 67.4862 7.33333 64.7115 7.33333 61.8182V23.6364L31.0347 47.1273C34.4763 50.5318 39.1389 52.4438 44 52.4438C48.8611 52.4438 53.5237 50.5318 56.9653 47.1273L80.6667 23.6364V61.8182C80.6667 64.7115 79.5077 67.4862 77.4448 69.5321C75.3819 71.5779 72.5841 72.7273 69.6667 72.7273Z" fill="#7C2343"/>
</svg>
