<svg width="81" height="81" viewBox="0 0 81 81" fill="none" xmlns="http://www.w3.org/2000/svg">
<g id="whatsapp 2" clip-path="url(#clip0_70_167)">
<g id="WA_Logo">
<g id="Group">
<path id="Vector" fill-rule="evenodd" clip-rule="evenodd" d="M69.0626 11.772C61.4824 4.185 51.4046 0.00337309 40.6688 -1.90735e-06C18.5456 -1.90735e-06 0.540008 18.0022 0.529883 40.1355C0.526508 47.2095 2.37601 54.1147 5.88938 60.2032L0.192383 81L21.4684 75.4178C27.3308 78.6172 33.9323 80.3014 40.6485 80.3047H40.6654C62.7851 80.3047 80.7941 62.2991 80.8043 40.1659C80.811 29.4435 76.6395 19.3556 69.0626 11.772ZM40.6688 73.5244H40.6553C34.668 73.5244 28.7989 71.9145 23.6756 68.8736L22.4573 68.1514L9.83138 71.4622L13.203 59.1502L12.4099 57.888C9.06863 52.5758 7.30688 46.4366 7.31026 40.1355C7.31701 21.7417 22.2851 6.777 40.6856 6.777C49.5956 6.777 57.9724 10.2532 64.2701 16.5577C70.5679 22.8656 74.034 31.2457 74.0306 40.1591C74.0205 58.5596 59.0558 73.5244 40.6688 73.5244ZM58.968 48.5392C57.9656 48.0364 53.0348 45.6097 52.1134 45.2756C51.1954 44.9415 50.5271 44.7727 49.8555 45.7751C49.1839 46.7775 47.2669 49.0387 46.6796 49.7104C46.0958 50.3786 45.5085 50.463 44.5061 49.9601C43.5038 49.4573 40.2705 48.4009 36.4399 44.982C33.4598 42.3225 31.4449 39.0386 30.861 38.0329C30.2771 37.0271 30.8003 36.4871 31.2998 35.9876C31.752 35.5387 32.3021 34.8165 32.805 34.2292C33.3113 33.6487 33.4766 33.2302 33.8141 32.5586C34.1483 31.8904 33.9829 31.3031 33.7298 30.8002C33.4766 30.3007 31.4719 25.3631 30.6383 23.355C29.8249 21.3975 28.998 21.6641 28.3804 21.6337C27.7965 21.6034 27.1283 21.6 26.4566 21.6C25.7884 21.6 24.7016 21.8497 23.7836 22.8555C22.8656 23.8612 20.2736 26.2879 20.2736 31.2221C20.2736 36.1597 23.868 40.9286 24.3675 41.5969C24.867 42.2651 31.4381 52.3969 41.499 56.7405C43.8919 57.7732 45.7616 58.3909 47.2163 58.8532C49.6193 59.616 51.8063 59.508 53.5343 59.2515C55.4614 58.9646 59.4675 56.8249 60.3045 54.4826C61.1415 52.1404 61.1415 50.1289 60.8884 49.7137C60.6386 49.2919 59.9704 49.0421 58.968 48.5392Z" fill="#7C2343"/>
</g>
</g>
</g>
<defs>
<clipPath id="clip0_70_167">
<rect width="81" height="81" fill="white"/>
</clipPath>
</defs>
</svg>
